<svg width="50" height="53" viewBox="0 0 50 53" fill="none" xmlns="http://www.w3.org/2000/svg">
<g clip-path="url(#clip0_18_69)">
<path d="M42.912 18.6188L37.1385 15.2855C38.6094 12.7379 37.734 9.47083 35.1864 8C32.6388 6.52917 29.3718 7.40458 27.9009 9.95214L22.1274 6.6188C20.2149 5.51464 17.7675 6.17043 16.6633 8.0829L1.99665 33.4863C0.892487 35.3988 1.54828 37.8463 3.46075 38.9504L24.2454 50.9504C26.1578 52.0546 28.6053 51.3988 29.7095 49.4863L44.3761 24.0829C45.4803 22.1704 44.8245 19.723 42.912 18.6188ZM10.5915 34.5996C9.63168 34.0454 9.3053 32.8274 9.85947 31.8675C10.4136 30.9077 11.6317 30.5813 12.5915 31.1355C13.5514 31.6896 13.8777 32.9077 13.3236 33.8675C12.7694 34.8274 11.5514 35.1537 10.5915 34.5996ZM14.5915 27.6714C13.6317 27.1172 13.3053 25.8992 13.8595 24.9393C14.4136 23.9795 15.6317 23.6531 16.5915 24.2073C17.5514 24.7614 17.8777 25.9795 17.3236 26.9393C16.7694 27.8992 15.5514 28.2255 14.5915 27.6714ZM18.5915 20.7432C17.6317 20.189 17.3053 18.971 17.8595 18.0111C18.4136 17.0513 19.6317 16.7249 20.5915 17.2791C21.5514 17.8332 21.8777 19.0513 21.3236 20.0111C20.7694 20.971 19.5514 21.2973 18.5915 20.7432ZM33.5197 10.8868C34.4796 11.4409 34.8059 12.659 34.2518 13.6188C33.6976 14.5786 32.4796 14.905 31.5197 14.3509C30.5599 13.7967 30.2335 12.5786 30.7877 11.6188C31.3418 10.659 32.5599 10.3326 33.5197 10.8868ZM27.424 42.7782C27.2407 43.0957 26.8309 43.2055 26.5133 43.0222L16.121 37.0222C15.8035 36.8389 15.6937 36.4291 15.877 36.1115L16.5437 34.9568C16.727 34.6393 17.1368 34.5295 17.4543 34.7128L27.8466 40.7128C28.1642 40.8961 28.274 41.306 28.0907 41.6235L27.424 42.7782ZM31.424 35.85C31.2407 36.1675 30.8309 36.2773 30.5133 36.094L20.121 30.094C19.8035 29.9107 19.6937 29.5009 19.877 29.1833L20.5437 28.0286C20.727 27.7111 21.1368 27.6013 21.4543 27.7846L31.8466 33.7846C32.1642 33.9679 32.274 34.3778 32.0907 34.6953L31.424 35.85ZM35.424 28.9218C35.2407 29.2393 34.8309 29.3491 34.5133 29.1658L24.121 23.1658C23.8035 22.9825 23.6937 22.5727 23.877 22.2551L24.5437 21.1004C24.727 20.7829 25.1368 20.6731 25.4543 20.8564L35.8466 26.8564C36.1642 27.0397 36.274 27.4495 36.0907 27.7671L35.424 28.9218Z" fill="white"/>
</g>
<defs>
<clipPath id="clip0_18_69">
<rect width="32" height="42.6667" fill="white" transform="translate(21.33) rotate(30)"/>
</clipPath>
</defs>
</svg>
