<svg width="24" height="24" viewBox="0 0 24 24" fill="none" xmlns="http://www.w3.org/2000/svg">
<path d="M8 3L3 8L8 13M12 20H15C15.7879 20 16.5681 19.8448 17.2961 19.5433C18.0241 19.2417 18.6855 18.7998 19.2426 18.2426C19.7998 17.6855 20.2417 17.0241 20.5433 16.2961C20.8448 15.5681 21 14.7879 21 14C21 13.2121 20.8448 12.4319 20.5433 11.7039C20.2417 10.9759 19.7998 10.3145 19.2426 9.75736C18.6855 9.20021 18.0241 8.75825 17.2961 8.45672C16.5681 8.15519 15.7879 8 15 8H4" stroke="white" stroke-width="2"/>
</svg>
